<?xml version="1.0" encoding="UTF-8"?>
<!DOCTYPE svg PUBLIC "-//W3C//DTD SVG 1.0//EN" "http://www.w3.org/TR/2001/REC-SVG-20010904/DTD/svg10.dtd">
<!-- Creator: CorelDRAW X6 -->
<svg xmlns="http://www.w3.org/2000/svg" xml:space="preserve" width="1000px" height="882px" version="1.0" style="shape-rendering:geometricPrecision; text-rendering:geometricPrecision; image-rendering:optimizeQuality; fill-rule:evenodd; clip-rule:evenodd"
viewBox="0 0 62689 55281"
 xmlns:xlink="http://www.w3.org/1999/xlink">
 <defs>
  <style type="text/css">
   <![CDATA[
    .fil27 {fill:#141B2D}
    .fil25 {fill:#181D36}
    .fil30 {fill:#23265B}
    .fil15 {fill:#234B28}
    .fil7 {fill:#2AABE1}
    .fil12 {fill:#2CACE2}
    .fil8 {fill:#416586}
    .fil17 {fill:#44485B}
    .fil9 {fill:#4C1639}
    .fil4 {fill:#4E4DCB}
    .fil18 {fill:#4F5366}
    .fil26 {fill:#504FCB}
    .fil16 {fill:#55586B}
    .fil33 {fill:#619C7D}
    .fil1 {fill:#88CFB3}
    .fil5 {fill:#8AD1B5}
    .fil24 {fill:#90D0FE}
    .fil22 {fill:#95D2FF}
    .fil11 {fill:#9CABB2}
    .fil31 {fill:#A898A9}
    .fil3 {fill:#BAE9FA}
    .fil10 {fill:#C7F0FF}
    .fil29 {fill:#C890A2}
    .fil28 {fill:#C9827E}
    .fil21 {fill:#DAC495}
    .fil0 {fill:#E1F6FE}
    .fil14 {fill:#E29A94}
    .fil6 {fill:#E59D96}
    .fil23 {fill:#E5A29B}
    .fil13 {fill:#E69F98}
    .fil20 {fill:#E8AAA5}
    .fil35 {fill:#EAD392}
    .fil32 {fill:#EBCBB9}
    .fil2 {fill:#EBF6FE}
    .fil19 {fill:#ECD38E}
    .fil34 {fill:#FDE9A7}
    .fil37 {fill:#FEE28A}
    .fil36 {fill:#FEE697}
   ]]>
  </style>
 </defs>
 <g id="Camada_x0020_1">
  <metadata id="CorelCorpID_0Corel-Layer"/>
  <g id="_348715912">
   <path class="fil0" d="M6373 44684c-27,30 -29,46 -138,56 -55,5 -110,2 -165,2 -140,-1 -184,25 -296,51 -113,27 -170,63 -254,89l-1159 226c-165,29 -43,61 -242,76 -788,60 -640,329 -1381,-25 -53,-25 -37,-27 -109,-55 -288,-114 -441,-249 -571,-284 4,106 317,251 442,305 180,77 326,204 519,206 -3,190 -271,120 -390,173 -57,26 -11,8 -46,30l-1155 528c-48,31 -69,35 -122,69 -46,30 -68,44 -118,73 -194,114 -507,355 -651,515 -395,439 -194,280 -403,553 -32,42 -29,50 -43,105 -197,744 -11,721 27,1050 232,119 228,359 794,599 96,41 62,47 162,81 698,240 1095,250 1904,210 134,-7 277,-31 400,-62 107,-27 295,-38 398,-86 234,-111 527,-117 776,-202 145,-50 216,-32 364,-96 279,-122 623,-115 797,-185 173,-70 -35,-53 414,-85 36,-77 -12,-74 161,-86 676,-51 812,-84 1577,-78 108,1 219,0 327,4 342,11 941,267 1029,615 14,54 7,107 15,155 25,138 74,87 79,411 1,100 -4,224 7,321 15,141 49,122 83,233 52,169 20,124 108,242l255 285c400,322 849,372 927,407 55,25 104,55 243,69 434,43 2725,112 3166,12l1498 -139c171,-7 164,-30 273,-49 227,-41 600,-35 873,-100 100,-24 209,-3 300,-22 341,-72 703,-80 1186,-103 153,-7 459,-12 621,-32 150,-18 -6,-4 119,-32 147,-33 806,-29 971,-9 142,18 47,14 125,33 594,143 1405,-95 2002,283 114,72 -31,-5 100,61 169,85 321,329 267,577 -41,111 14,-37 -51,84 -41,75 -11,54 -76,114 -158,148 -521,370 -741,402l-599 160c-110,32 -212,31 -318,62l-625 137c-407,108 -832,139 -1231,289 -81,31 -75,21 -157,37 -87,17 -398,152 -518,234l-44 36c-4,3 -11,9 -15,12 -98,79 -194,144 -210,278 -8,70 -7,312 10,376 47,174 330,448 491,534 7,4 30,14 37,18 468,261 691,260 1138,436l924 214c99,28 242,21 347,36 135,20 167,54 311,66 249,21 481,49 741,54 -26,23 35,59 -127,41l5243 -100c206,-23 455,-16 686,-30 117,-7 184,-37 299,-44 258,-17 745,33 971,-36 156,-48 1159,-104 1347,-85l-362 -11c86,-51 647,-63 758,-64 257,-3 538,-33 775,-58l-121 -21c309,-18 1425,-71 1693,-124 333,-66 693,-62 1042,-140 315,-71 863,-27 1016,-102 59,-29 2,-10 47,-30l2235 -165c256,-62 896,-69 1062,-127 160,-56 618,-48 831,-69 42,-4 84,-4 126,-11l706 -50c-56,-23 -26,-4 -77,-15 -58,-13 -21,28 -93,-29 203,-72 883,-22 1147,-84 360,-84 794,-72 1175,-77 22,-66 29,25 -7,-30 -21,-32 -20,-9 -20,-12 390,-71 1038,-2 1391,-83 503,-115 1181,-23 1724,-94 124,-16 216,-37 332,-41 739,-25 1444,-1 2174,-31 495,-20 2088,15 2485,-68 230,-48 436,-91 602,-218 201,-153 220,-464 99,-657 -2,-3 -26,-41 -32,-49 -159,-232 -391,-415 -582,-614l-119 -101c-4,-3 -11,-8 -15,-12 -41,-32 -11,-7 -29,-24l-245 -189c-5,-3 -11,-8 -15,-11 -81,-63 -125,-122 -214,-169l-515 -300c-42,-21 -23,-9 -59,-25 -53,-23 -66,-30 -116,-68 -69,-53 -163,-91 -221,-157 -3,-4 -8,-10 -11,-15 -67,-89 -142,-264 -153,-373 -29,-292 124,-371 331,-493l49 -33c141,-72 715,-213 877,-222l734 -29c203,-5 173,-23 320,-62 209,-55 622,-2 845,-50l142 -44c292,-46 682,-57 667,-453 -3,-89 -8,-113 -61,-175 -27,-31 -29,-31 -50,-60l-507 -441c-5,-3 -11,-8 -16,-11l-1214 -777c-53,-68 -28,-74 25,-113 98,-70 90,45 114,-101 -58,25 -116,35 -186,70 -156,78 7,31 -154,86l-503 196c-373,55 -93,72 -372,93l-780 148c-333,88 -746,45 -1095,39 -234,-4 -212,-61 -376,-79 -72,-8 -172,3 -238,-10 -82,-16 -46,-33 -149,-63 -74,-22 -154,-20 -206,-39l-1161 -576c-167,-85 76,82 -60,-41 -258,-235 -595,-512 -808,-793l-402 -519c-112,-170 -568,-1022 -611,-1234l-293 -1082c-13,-192 -20,-251 -62,-407 -52,-193 -38,-682 16,-855 38,-124 40,-257 95,-366 43,-86 134,-233 145,-355 -189,120 -212,389 -291,597 -169,448 35,1273 64,1596 10,108 73,220 94,328 2,10 15,74 19,90l23 60c2,6 6,12 8,18 28,72 31,101 37,194 -177,-35 -366,-135 -564,-168 -287,-49 -164,-40 -267,-84 -67,-28 -228,-53 -305,-75 -4,-13 -18,-73 27,-40 -373,-32 -664,-135 -991,-216l-499 -105c-175,-77 -300,-93 -517,-107l26 -61c-147,-8 -265,-4 -380,-70 -76,-44 -16,-37 -160,-41 -295,-8 -180,-12 -417,-59l-191 -47c-85,-14 -206,14 -269,-55l-511 -62c-10,-33 -5,-31 -5,-38 0,0 1,-5 1,-6 0,0 2,-3 2,-3 0,0 2,-1 2,-2 -309,-18 -534,-86 -792,-113 -541,-56 -156,-23 -357,-75 -129,-34 -309,11 -428,-44 -4,-111 30,-308 30,-462 -1,-166 0,-333 0,-499l-66 18c-5,157 8,322 7,482 -2,355 -30,183 -78,383 -50,209 -57,170 -172,313 -198,246 -378,199 -122,521 272,343 152,248 24,505l121 58c38,30 60,62 114,105l1301 739c18,6 43,12 63,20 751,280 283,75 655,96l109 180c168,-57 70,-66 196,-85 120,-18 119,16 193,39 191,61 306,-24 366,158 29,155 64,104 63,333 0,186 -67,519 -124,692 -84,258 -160,724 -429,770 -106,18 -267,-10 -339,-60 -111,-78 -22,-106 -180,-179l-1 -516c-7,-5 -16,-11 -22,-15 -6,-3 -14,-10 -21,-14 -6,-4 -14,-9 -21,-13 -8,-5 -31,-17 -39,-21 -29,-15 -56,-27 -82,-43l0 -102 -157 -121c-47,-47 -34,-122 -321,-200 -60,-16 -151,-21 -207,-40l-997 -443c-149,-64 -48,-47 -227,-149l-574 -425c-271,-262 -391,-24 -492,38 -83,52 -273,90 -293,-73 -56,-61 -115,-98 -169,-175 -204,-290 -193,-216 -323,-157 -64,29 -78,33 -129,65 -75,48 -139,112 -235,143 -179,186 -131,92 -323,26 -186,-64 -231,-2 -313,130 -76,122 -315,471 -340,619 -14,153 -367,1008 -385,1293 -33,512 20,148 -103,436 120,179 102,54 152,353 87,339 -156,282 634,281 873,-1 3859,-32 4416,33 301,35 1287,80 1513,229 -1,161 -33,108 -263,203 -180,74 -379,33 -589,57 -91,10 -155,39 -247,49l-6197 -6c-321,-74 -453,-38 -779,-69 -259,-25 -129,-14 -210,-52 -71,-33 -128,-36 -203,-65 -6,-95 10,-132 -34,-215 -32,-59 -192,-156 27,-489 58,-88 147,-179 285,-198 310,-41 114,76 355,-85l0 -81c86,-218 100,-32 174,-215 64,-159 -21,-98 161,-180l133 -741c121,-315 1,-180 132,-434l263 -575c12,-105 306,-602 398,-745 67,-105 21,19 69,-115 -13,-100 -178,-186 -246,-253 -151,-150 -96,-280 38,-392l148 -155c47,-52 60,-70 111,-135 573,-719 466,-454 372,-1228 -18,-147 -15,-307 -9,-454l-54 -26c-20,29 -21,57 -15,216 3,90 5,182 7,272 6,196 3,313 76,444 -348,-5 -641,-77 -1000,-80 -640,-6 -337,-71 -1005,-79l-1599 -41c-195,-19 -244,-83 -456,-118 54,81 -11,2 52,55 5,4 53,35 55,37 98,56 369,122 484,322 167,289 -124,218 510,473 83,33 257,108 312,173 96,111 22,-13 72,133 -26,51 -7,130 -27,212l-155 380c-43,136 19,95 -79,246l-68 120c-100,185 -138,420 -214,547 -69,115 -29,74 -67,207l-237 520c-137,246 -142,308 -313,476 -45,45 -76,78 -95,141l164 45c-24,101 -64,84 -184,107 -115,22 -120,39 -246,51 -188,17 -366,23 -570,27 -225,5 -355,42 -543,53 -196,11 -401,4 -598,11 -3497,128 -7022,137 -10532,101 -146,-1 -463,13 -588,-13 -394,-83 -2279,-30 -2841,-85 -348,-34 -788,-58 -1131,-69 -114,-4 -918,18 -996,-161 70,-79 126,-45 259,-60 109,-12 164,-52 264,-77 -46,-94 -30,-45 -78,-101 -369,-422 -60,-596 363,-844 321,-188 522,-389 797,-589l163 -109c150,-113 384,-320 497,-483l34 -57c25,-130 60,-160 113,-274 49,-106 70,-132 210,-145 91,-9 494,-64 565,-110 11,-571 -329,34 -483,-1020 -74,-510 -43,-2315 -39,-2944 3,-501 67,-919 67,-1405 -84,60 -73,130 -89,254 -47,353 -79,1984 -78,2319 1,413 29,1549 75,1955 19,171 158,368 159,500 -486,23 -360,48 -705,99 -190,28 -423,3 -543,65 -100,52 -396,41 -541,77l-534 66c-202,15 -97,26 -163,56 -56,25 -293,48 -367,58 -57,8 -111,11 -168,24 -222,51 -521,55 -707,114 -182,58 -364,57 -574,81 -441,50 -1009,249 -1416,250 21,-78 8,-35 57,-87l202 -177c432,-356 807,-736 1157,-1181 86,-109 161,-220 247,-323 45,-53 77,-88 114,-166l271 -457c111,-142 -52,61 35,-46 5,-6 21,-22 36,-41l100 -172c52,-87 65,-145 68,-260 2,-97 -3,-174 -55,-245 -113,-153 -373,-277 -564,-323 -161,-39 -13,-49 -192,-79 -84,-14 -208,3 -299,-5 -182,-16 -894,-43 -1081,28 -92,35 -226,51 -324,115 -5,3 -10,9 -15,12l-267 135c-71,31 -139,45 -207,16 -276,-120 -180,-902 -151,-1172 23,-211 28,-691 -3,-876 -24,-142 -120,-280 -186,-389l-158 -177c-137,-115 -438,-241 -630,-214 -148,20 -299,129 -407,207l-197 160c-4,3 -10,9 -14,11l-116 63c-60,22 -156,31 -215,9 -158,-59 -110,-258 -185,-372 -97,-151 -20,-4 -70,-214 -24,-99 -48,-87 -69,-199 -12,-63 -8,-72 -23,-120l-110 -244c-3,-7 -5,-14 -8,-20l-174 -425c-3,-6 -6,-14 -9,-20 -24,-47 -29,-46 -50,-84l-218 -408c-82,-134 -175,-348 -334,-410 35,136 104,196 153,290l98 174c3,6 7,13 11,19l119 204c27,42 53,73 75,114 30,58 30,89 66,151l250 565c26,76 25,68 56,131 170,340 104,1076 689,916 71,-19 37,-20 116,-69l439 -299c48,-17 51,-14 102,-17 327,-25 368,-4 523,94 128,81 210,188 293,336 48,86 28,44 44,157 42,289 71,89 92,301 41,420 -75,870 -75,1142 0,171 49,597 129,680 174,181 388,117 552,5 5,-3 10,-9 16,-12l38 -22c7,-3 15,-5 22,-8 250,-94 76,-51 192,-100 58,-24 126,-21 181,-40 81,-28 30,-28 128,-59 178,-57 961,-61 1159,37 158,79 321,47 642,310l150 119c6,222 -46,287 -136,428 -77,120 -160,330 -238,418l-361 530c-97,169 -323,433 -465,569l-516 515c-216,213 -189,118 -440,348 -473,434 -430,285 -682,353l-414 98c-81,22 -106,46 -183,58 -85,14 -183,6 -266,17 -118,17 -69,32 -175,63 -17,5 -507,70 -658,132 -109,45 -38,68 -169,73z"/>
   <path class="fil1" d="M52715 41738c462,39 759,-224 975,-277 220,-54 284,-98 440,-195 99,-61 194,-169 317,-183 249,-28 178,169 37,270 -79,57 -152,95 -233,147l-243 139c-53,25 -86,29 -134,55l-109 56c-531,196 -633,222 -1256,314 -127,207 -246,468 -392,665l-262 416c-277,380 -456,624 -766,973l-314 338c-45,45 -71,52 -119,98 -110,104 -205,239 -320,331l-258 185c-191,112 -400,361 -592,489 -79,53 -185,119 -241,179 105,237 910,118 1166,62 234,-51 399,-25 782,-141 78,-23 101,-38 164,-55 77,-21 124,-23 196,-48 225,-79 456,-274 686,-135 13,220 -161,235 -312,293l-317 118c-114,51 -236,46 -347,89 -71,27 -53,40 -158,55 -276,38 -475,103 -758,111 -343,10 -871,105 -1221,-26 -254,-95 -210,-91 -622,143l-576 294c-224,121 -749,376 -970,325 -34,-294 85,-215 262,-302 -9,-174 -75,-134 -311,-272 -301,-177 -914,-671 -1143,-952l-113 -126c-262,-249 -451,-611 -647,-902 -60,-89 -81,-124 -58,-266 306,-65 271,119 503,475l434 564c4,4 11,9 15,13 727,664 569,637 1465,1120 131,71 204,126 425,77 226,-51 349,-166 524,-247l322 -188c26,-19 56,-41 79,-57 138,-94 285,-146 410,-243l149 -99c162,-103 268,-241 423,-358 1,-175 -101,-252 -157,-389 -119,-291 -288,-600 -380,-976 -22,-89 -21,-196 -38,-266 -37,-152 -80,-278 -87,-460 -12,-342 -85,-685 -38,-1049 35,-267 -50,-382 230,-383 29,444 -64,1010 41,1440 46,191 49,246 49,481 46,115 33,-6 94,124l117 377c34,114 41,78 80,188 40,110 252,662 361,665 93,2 344,-295 437,-374 74,-63 88,-98 149,-151 81,-70 87,-40 152,-117l807 -985c4,-4 9,-10 13,-15 5,-6 22,-22 27,-28l45 -58c39,-58 152,-293 300,-493l319 -521c182,-296 303,-635 448,-938l299 -815c25,-93 51,-88 76,-224 31,-165 84,-266 109,-435 28,-197 50,-317 274,-310 76,293 -20,427 -69,685l-142 423c-102,234 -151,504 -262,748l-184 383c-35,95 -41,49 -51,151zm-8978 -127c-10,122 -101,269 -145,355 -55,108 -56,242 -95,366 -53,173 -68,662 -16,855 42,156 49,215 62,407l293 1082c43,212 499,1064 611,1234l402 519c213,282 549,558 808,793 135,123 -108,-45 60,41l1161 576c52,19 132,17 206,39 103,31 67,47 149,63 67,13 166,3 238,10 164,18 143,75 376,79 349,6 763,49 1095,-39l780 -148c280,-21 -1,-38 372,-93l503 -196c161,-55 -1,-8 154,-86 70,-35 128,-46 186,-70 4,-3 12,-13 14,-9l953 -553c187,-157 406,-286 584,-447 208,-188 496,-396 682,-594 67,-72 61,-82 127,-145l1727 -2423 589 -1476c20,-75 39,-107 66,-178l206 -823c21,-90 11,-160 24,-250 24,-170 66,-215 79,-464 17,-332 21,-651 17,-1005 -4,-337 -162,-706 -325,-988l-392 -450c-4,-4 -8,-11 -12,-16 -4,-4 -9,-11 -13,-15l-76 -65c-5,-4 -12,-7 -18,-11 -5,-3 -13,-7 -18,-10l-251 -175c-294,-258 -1358,-197 -1718,4 -49,27 -37,25 -86,44l-41 14c-7,3 -14,5 -21,7 -7,3 -14,6 -20,9l-323 197c-92,75 -154,73 -257,150 -43,32 -37,28 -75,60 -235,194 -480,359 -681,595 -102,120 -132,289 -265,382 -93,66 -91,132 -192,187 -87,48 -83,68 -139,139 -215,273 -701,704 -1063,432 -181,-137 -243,-392 -402,-548 -355,-349 -1039,-93 -1434,46 -85,30 -63,50 -159,105l-326 215c-5,3 -12,7 -18,10 -5,3 -12,7 -17,11 -5,3 -12,8 -17,11l-239 170c-204,185 -383,396 -550,617 -168,222 -318,473 -436,728 -82,178 -172,377 -219,570 -37,151 -105,490 -160,601 -89,180 -141,770 -172,1020l-30 109c-131,-13 -145,-128 -226,-291 -125,-249 -192,-333 -357,-539l-121 -175c-41,-56 -9,-10 -53,-80 -29,-46 -27,-41 -54,-82l-43 -68c-3,-5 -8,-11 -11,-16 -139,-201 -304,-432 -515,-548 -135,-75 -289,-74 -459,-14 -78,28 -167,113 -231,177 -35,34 -14,-44 -33,61z"/>
   <path class="fil2" d="M16609 44074c7,75 23,45 62,126 16,34 18,45 33,77 137,280 49,109 95,393 138,846 -49,934 -902,1016 -96,9 -202,55 -295,78 -114,28 -241,16 -372,40 -112,21 -215,54 -328,75 -132,25 -251,15 -365,48 -284,83 -1514,250 -1637,316 334,15 633,2 935,-20 299,-22 605,-14 913,-38 573,-45 1303,-17 1909,-19l11187 37c114,6 127,31 150,-32 11,-178 21,-266 138,-359 80,-64 175,-135 296,-137 51,-70 77,-91 171,-113 175,-42 142,-14 347,-131 21,-12 100,-71 122,-95 163,-178 55,-356 47,-790 -129,-6 -149,55 -326,72 -114,11 -261,5 -377,4l-651 -133c-238,-138 121,43 -69,-42 -51,-23 -41,-10 -83,-27l-472 -310c-37,-33 -468,-293 -570,-407 -228,-256 -28,-33 -315,-231l-208 -172c-4,-4 -10,-9 -15,-12l-342 -281c-146,-126 -45,-64 -222,-161l-227 -178c-4,-4 -11,-8 -15,-12l-820 -726c-75,-59 -134,-116 -202,-180 -136,-127 -280,-240 -399,-386l-709 -864c-61,-85 -104,-165 -157,-253 -51,-84 -98,-151 -151,-229l-488 -894c-55,-120 20,-68 -75,-122 -155,-77 -508,-25 -708,-27 -101,-1 -1128,-70 -1250,-128 -328,-157 -608,42 -1082,-112 -133,-43 -700,-16 -1025,-66 -554,-85 -753,44 -1055,351 -244,248 -265,429 -375,741 -37,105 -53,136 -79,275 -26,137 -69,172 -81,301 -13,134 12,201 -39,312 -106,229 -43,296 -103,603 -127,652 -2,741 17,1014 12,173 23,159 80,270l133 246c38,73 94,164 40,281 -83,178 -322,148 -466,234l23 570c95,5 232,11 304,99 52,64 57,-19 51,111z"/>
   <path class="fil3" d="M20766 34881c3,432 124,19 111,757 -5,272 -113,389 -229,597 -4,7 -10,16 -13,21 -3,6 -8,15 -14,22 -664,0 -1377,9 -2009,-38 -310,-23 -635,-23 -978,-21 -209,1 -787,39 -947,80 -288,74 -423,31 -607,124 -263,132 -397,114 -564,219 -5,3 -12,7 -17,10 -5,3 -12,7 -17,10 -7,4 -26,17 -33,21l-253 153c-62,50 -80,69 -131,114l-288 303c-3,5 -7,12 -10,17 -165,286 -82,349 -217,710 -35,94 -24,134 -35,216 0,486 -64,904 -67,1405 -4,629 -35,2433 39,2944 153,1054 494,449 483,1020 -71,46 -475,102 -565,110 -140,14 -162,40 -210,145 -52,114 -87,144 -113,274 8,-5 20,-21 25,-15 56,78 137,-303 308,-340 139,-30 445,-43 598,-55 23,-350 -10,-328 125,-328 50,0 172,42 466,39 219,-2 334,-87 570,-49l16 557c231,83 1,-51 357,138 42,22 2,3 67,32 6,-129 1,-47 -51,-111 -72,-88 -209,-94 -304,-99l-23 -570c144,-87 383,-57 466,-234 55,-117 -2,-207 -40,-281l-133 -246c-57,-112 -68,-97 -80,-270 -19,-272 -145,-361 -17,-1014 60,-307 -2,-374 103,-603 51,-111 26,-178 39,-312 12,-129 55,-164 81,-301 26,-139 42,-169 79,-275 110,-312 131,-494 375,-741 302,-307 501,-436 1055,-351 325,50 892,23 1025,66 473,154 754,-46 1082,112 122,58 1149,127 1250,128 200,3 553,-49 708,27 95,54 20,2 75,122l488 894c52,78 100,145 151,229 53,88 96,169 157,253l709 864c119,146 263,259 399,386 68,64 127,121 202,180l820 726c4,4 11,8 15,12l227 178c177,97 76,36 222,161l342 281c4,4 10,9 15,12l208 172c287,198 87,-25 315,231 101,114 533,374 570,407l472 310c41,17 31,4 83,27 190,85 -169,-96 69,42l651 133c117,1 264,7 377,-4 178,-17 197,-78 326,-72 9,434 116,612 -47,790 -22,24 -101,84 -122,95 -205,117 -172,89 -347,131 -94,22 -120,43 -171,113 239,-3 607,-180 719,-315 134,-161 52,-578 73,-951l453 -368c35,-42 20,-18 64,-72 41,-50 29,-41 67,-99 122,-187 127,-127 224,-343 22,-48 29,-47 48,-87 61,-130 -6,-86 154,-307 191,-11 238,47 344,90 548,221 258,148 496,267 8,4 18,9 28,12 -49,-147 24,-23 -72,-133 -56,-65 -230,-140 -312,-173 -634,-254 -343,-184 -510,-473 -115,-200 -386,-266 -484,-322 -2,-1 -50,-33 -55,-37 -63,-53 2,26 -52,-55l-1876 -1025 -1436 -1225c-177,-187 -210,-205 -337,-426l-122 -173c-217,-238 -80,-163 -202,-283 -43,-42 14,21 -43,-40 -77,-83 -272,-478 -305,-572 -82,-234 61,-190 229,-330 32,-27 41,-33 73,-63 64,-60 272,-335 319,-464 68,-188 154,-346 165,-464 34,-341 92,-93 86,-843 -5,-595 46,-265 135,-486 35,-88 57,-690 -33,-847l-334 -840c-10,-39 -6,-43 -11,-79 -30,-226 -49,-78 -88,-220 -25,-91 -1,-194 -29,-282 -35,-107 -68,-37 -76,-261 -10,-297 -91,-203 -100,-516 -3,-97 -6,-181 -15,-272 -14,-145 -37,-144 -61,-267 -37,-183 -9,-378 -58,-558 -54,-195 -38,-367 -84,-547 -19,-76 -59,-125 -68,-210l-128 -676c-24,-70 -45,-85 -52,-104 -23,-64 -18,-181 -45,-262l-157 -457c-72,-244 8,-199 -126,-231 45,272 107,363 178,662 29,124 36,74 68,171 26,79 19,145 48,224 32,85 48,55 65,169 43,293 77,291 91,431 44,459 58,256 93,416 30,137 11,355 31,503 21,154 71,229 78,438 22,643 69,456 96,682 11,91 11,169 28,244 23,105 42,109 59,216 76,486 50,235 98,412 23,84 12,123 41,204 37,103 55,89 77,180l205 570c113,283 381,1042 39,1171 -95,-93 -106,-195 -242,-369l-187 -273c-200,-235 -458,111 -571,279 -305,453 -209,342 -685,618 -90,52 -199,117 -284,137 -234,55 -168,73 -338,96 -413,57 -695,203 -1086,208 -509,7 -654,142 -1150,-30 -102,-35 -325,-242 -591,-276 -171,-22 -222,-2 -277,-133 -2,-103 323,-207 176,-1059l-133 -295z"/>
   <path class="fil4" d="M22392 25996c-51,109 -65,66 -183,124l-380 168c-166,74 50,27 -121,82 -108,35 -108,26 -201,77l-168 105c-191,120 -350,-59 -419,-58 -161,40 -62,38 -114,63 -143,66 -125,-38 -279,148 69,274 312,878 -40,1169 -277,229 -581,-230 -653,-378 -75,-154 16,-137 -163,-224 -330,163 -240,551 -256,654 -84,48 -118,71 -177,139 -59,68 -91,118 -152,169l-46 36c-31,27 -7,5 -43,41l-155 173c-108,125 -220,172 -394,473 -13,23 -43,80 -56,107 -18,36 -30,70 -51,114 -48,98 -76,115 -96,252 -62,412 24,1288 2,1918 -9,251 -83,337 -77,610 102,82 35,54 183,117l194 82 936 5c83,116 148,226 223,348 60,98 151,244 188,368 5,161 -9,27 95,165 4,5 8,12 11,17 5,7 16,28 20,35l468 969c19,55 21,96 39,157 18,60 37,81 57,131l106 245c18,49 79,266 79,286l133 295c147,852 -179,956 -176,1059 55,131 106,112 277,133 266,34 489,241 591,276 496,172 641,36 1150,30 392,-5 673,-151 1086,-208 170,-23 105,-41 338,-96 85,-20 194,-85 284,-137 475,-276 380,-165 685,-618 113,-168 371,-514 571,-279l187 273c136,175 148,276 242,369 343,-130 74,-889 -39,-1171l-205 -570c-23,-92 -41,-77 -77,-180 -29,-81 -18,-120 -41,-204 -48,-177 -22,74 -98,-412 -17,-107 -36,-111 -59,-216 -16,-75 -17,-154 -28,-244 -27,-227 -75,-39 -96,-682 -7,-210 -57,-284 -78,-438 -20,-148 -2,-367 -31,-503 -35,-160 -49,43 -93,-416 -14,-141 -48,-139 -91,-431 -17,-114 -33,-84 -65,-169 -30,-79 -22,-145 -48,-224 -32,-97 -39,-47 -68,-171 -71,-299 -132,-390 -178,-662l-130 -340c-73,-159 -16,44 -103,-250l-349 -681c-116,-291 -47,-92 -126,-226l-183 -376c22,-45 25,-35 40,-53l132 -141c60,-51 130,-107 194,-160 205,-171 159,-213 126,-496 -26,-178 -9,-43 -66,-167 -3,-6 -6,-13 -9,-20l-20 -64c-25,-64 8,-16 -35,-60 -216,-217 -160,-205 -292,-334 -164,-160 -305,-164 -285,-265 -64,-12 -109,-49 -154,-84 -5,-3 -11,-9 -15,-12 -4,-3 -10,-9 -15,-12 -4,-3 -10,-9 -15,-12 -127,-86 -114,-20 -275,41l-179 92c-102,44 -84,34 -165,77l-521 255z"/>
   <path class="fil5" d="M6373 44684c-399,-59 -148,147 -585,-321 -93,-100 -103,-274 -519,-102 -136,56 -202,60 -363,94 -473,100 -824,117 -1307,110l-866 -84c-223,-43 -276,-14 -267,-266 612,-17 511,60 756,83 254,24 918,22 1181,-29l994 -217c18,-176 -16,-139 -62,-197 -232,-296 -185,-188 -347,-496l-338 -530c-77,-130 -158,-287 -232,-413 -91,-44 -53,-20 -140,-119 -329,36 -41,90 -841,92 -401,1 -479,-33 -792,-136 -51,-535 387,-247 546,-230 86,9 872,73 913,-123 27,-128 -58,-68 -108,-246 -2,-8 -3,-16 -6,-24 -2,-8 -4,-15 -7,-23l-81 -223c-37,-139 -37,-61 -77,-167 -56,-147 -226,-634 -212,-764 8,-71 -91,-368 -118,-458 -25,-81 -42,-150 -61,-238 -24,-108 -52,-155 -78,-243 -28,-92 -13,-169 -34,-267 -188,-851 -257,-1689 -247,-2561 3,-260 -28,-380 90,-543l167 18c46,124 17,1100 47,1477l110 922c22,114 34,85 47,191 10,85 3,177 18,264 12,72 39,118 56,183 20,77 21,169 36,237 49,222 58,36 93,429l369 1179c111,321 422,902 482,1059 56,145 7,116 153,367 47,81 136,253 213,295 191,-59 732,-779 860,-1009l443 -939c44,-120 -12,-112 100,-157 55,-22 129,-21 165,56 63,133 -144,533 -218,683l-144 320c-8,17 -29,47 -41,68l-139 242c-63,92 -136,159 -199,257 -59,92 -129,193 -206,288 -351,434 -534,377 -396,594l223 348c103,142 203,280 314,420 28,35 45,51 75,87l447 503c19,23 19,23 37,44 99,117 72,82 95,213zm-4316 136c129,35 283,170 571,284 72,29 56,30 109,55 740,353 592,85 1381,25 199,-15 77,-48 242,-76l1159 -226c85,-27 141,-63 254,-89 112,-26 156,-52 296,-51 55,0 110,3 165,-2 110,-10 111,-26 138,-56 131,-5 59,-28 169,-73 151,-62 641,-127 658,-132 106,-30 57,-46 175,-63 83,-12 181,-4 266,-17 77,-13 102,-36 183,-58l414 -98c251,-68 208,81 682,-353 251,-230 224,-135 440,-348l516 -515c141,-137 368,-400 465,-569l361 -530c78,-87 162,-297 238,-418 90,-141 142,-207 136,-428l-150 -119c-320,-263 -483,-231 -642,-310 -198,-98 -981,-94 -1159,-37 -98,31 -47,31 -128,59 -55,19 -123,16 -181,40 -117,49 57,6 -192,100 -7,3 -15,5 -22,8l-38 22c-5,3 -11,9 -16,12 -164,112 -378,176 -552,-5 -80,-83 -129,-509 -129,-680 0,-272 116,-722 75,-1142 -21,-212 -50,-12 -92,-301 -16,-113 4,-71 -44,-157 -83,-148 -165,-256 -293,-336 -155,-98 -196,-118 -523,-94 -51,4 -54,1 -102,17l-439 299c-79,49 -45,50 -116,69 -585,160 -518,-576 -689,-916 -31,-63 -30,-55 -56,-131l-250 -565c-36,-62 -36,-93 -66,-151 -21,-41 -47,-72 -75,-114l-119 -204c-3,-6 -7,-13 -11,-19l-98 -174c-48,-94 -118,-154 -153,-290l-169 -238c-49,-62 1,-2 -36,-45l-495 -423c-44,-30 -60,-42 -96,-68l-236 -145c-256,-166 -447,-187 -758,-167 -178,11 -145,17 -263,88 -518,311 -714,737 -907,1264 -43,117 -73,76 -91,279 -20,233 -84,364 -90,622 -5,244 -3,490 1,735 7,436 192,1084 297,1520 28,116 50,117 88,265l356 1109c57,158 164,429 101,586 -177,61 -543,13 -768,22 -222,9 -388,120 -523,263 -63,67 -124,137 -150,230 -19,70 -27,94 -44,148 -21,68 -28,119 -17,198 34,258 190,373 299,522 341,465 -225,753 -21,1271 55,140 126,236 221,346 292,337 448,372 539,476z"/>
   <path class="fil4" d="M41362 3123c-98,143 -166,124 -302,234 -136,111 7,27 -116,90l-320 209c31,136 150,226 194,384l2205 3824c3,5 7,12 10,17l1047 1745c31,53 55,105 88,156l1705 2913c3,6 7,13 10,18l449 740c145,183 83,159 131,176l-104 -783c-13,-48 -28,-70 -51,-165 -83,-339 -196,-1025 -224,-1372 -12,-157 -65,-226 -88,-366l-103 -802c-12,-154 -68,-253 -89,-363 -32,-163 9,-256 -50,-418 -108,-296 28,-313 -133,-759 -45,-124 -14,-298 -35,-437 -10,-66 -32,-114 -44,-173l-110 -592c-50,-371 16,-174 -92,-558 -39,-139 5,-260 -89,-621 -41,-156 -26,-261 -46,-421 -16,-126 -66,-174 -80,-355 -10,-131 -22,-307 -50,-409l-84 -368c-35,-148 -58,-199 -78,-377 -36,-312 -71,-490 -107,-797 -17,-151 -67,-225 -78,-382 -10,-146 3,-303 -29,-443 -39,-169 -64,-150 -68,-373l-140 -769c-37,-153 -6,-289 -156,-290 -90,104 -542,334 -760,481l-1132 714c-128,81 -229,141 -359,237 -86,64 -107,52 -191,108l-270 190c-61,44 -188,142 -262,154z"/>
   <path class="fil4" d="M40300 3819l-391 477c-222,302 -252,303 -439,539l-500 616c-40,61 -17,28 -54,80 -30,40 -25,34 -56,80l-90 95c-4,4 -11,9 -15,13l-158 196c-169,160 -263,326 -331,351 -35,81 -218,282 -296,356 -95,89 -256,270 -308,375 116,-83 163,-188 252,-277 220,9 224,137 395,261 66,48 75,57 132,117l337 283c5,4 11,9 15,13l150 121c34,28 94,95 110,108 110,84 80,19 267,194 125,117 78,37 246,215 60,63 88,69 137,110l733 648c313,216 571,515 744,640 50,36 90,58 131,89 69,52 60,59 124,121l511 411c170,148 145,93 249,211l2106 1806c110,119 418,335 630,536 121,115 168,113 260,201 152,147 618,586 774,605l-501 -878c-63,-109 -111,-199 -157,-316l-128 -219c-3,-5 -7,-12 -10,-17l-376 -628c-79,-133 -116,-139 -182,-276l-847 -1464c-14,-25 -80,-135 -89,-156 -57,-125 11,-66 -105,-219 -3,-4 -8,-11 -11,-16 -151,-195 -49,-71 -122,-209l-1201 -1996c-37,-63 -50,-103 -83,-163l-150 -225c-3,-5 -8,-11 -11,-16 -5,-7 -17,-27 -21,-34l-1424 -2427c-68,-46 -112,-113 -149,-187 -40,-83 -31,-134 -98,-141z"/>
   <path class="fil6" d="M16394 26154c6,6 16,5 19,17l46 50c56,92 -11,288 51,361 126,79 121,62 310,63 120,47 -44,188 430,93 235,300 586,456 890,633 265,154 598,162 920,87 89,-21 535,-207 590,-282l31 19c118,-15 -32,28 224,-170l367 -287c160,-153 127,4 189,-130 24,-125 0,-88 72,-180l233 -391c77,-155 119,-534 107,-717 -10,-153 -27,-128 -62,-239 -16,-50 -12,-64 -25,-110l-118 -237c-40,-74 -40,-31 -78,-130 -10,-27 -5,-26 -20,-64l-109 -172c-119,-145 31,54 -37,-41l-237 -386c-60,-94 -52,-49 -89,-154 -30,-84 -40,-150 -53,-247 -35,-250 -60,-183 -118,-207 26,94 96,171 42,276 -90,-62 -176,-223 -252,-317 -66,-82 -59,-41 -136,-132 -138,-164 -236,-327 -440,-489l-109 -80c-5,-2 -23,-17 -65,-26l-193 2 -77 183c-177,346 -165,45 -319,416 -57,137 -110,178 -223,259 -153,110 -111,102 -358,118l-186 319c-134,153 -150,140 -266,184 -87,33 -50,29 -109,56 -165,76 -195,19 -262,212 -96,279 -327,304 -486,404 -17,276 134,290 304,552 7,11 32,46 33,47 3,5 8,11 11,17l211 415c50,98 286,588 25,572l-246 -162c-186,-102 -133,26 -433,-3z"/>
   <path class="fil7" d="M33659 41718c20,52 174,108 295,162 150,67 621,167 810,173 167,5 281,36 434,45 766,44 1225,-42 1776,-29l36 2c4,0 13,2 17,2 6,1 24,5 32,7l66 -18c16,-55 84,-78 151,-138 55,-50 112,-109 146,-177 11,-137 34,-271 78,-387 53,-143 35,-213 48,-370 13,-152 62,-188 83,-304 21,-117 10,-276 21,-399 44,-493 4,-741 -465,-1118 -11,-223 77,-73 28,-250l-233 -664c-55,-181 -23,-347 -213,-378 -90,-15 -472,-60 -534,-57l-4 34 169 5c3,201 -3,239 -82,366 -82,131 -61,151 -232,211 -346,121 -823,8 -665,-452 54,-158 68,-11 101,-232l-514 -19c-91,135 -143,530 -211,767 -24,85 -49,98 -73,169 -240,712 -354,345 -746,68 -28,146 -27,252 -36,406 -10,191 -59,193 -82,352 -27,188 -21,198 -77,348 -47,127 -16,287 -53,395 -32,94 -36,1 -65,151 -13,70 -12,143 -20,197 -26,175 -72,144 -84,346 -48,780 75,519 95,787z"/>
   <path class="fil8" d="M33245 44334l30 37c3,3 11,12 15,16 4,4 10,10 14,14l203 129c127,152 -22,15 160,100 226,105 36,71 490,245 258,99 144,74 361,15 96,-31 159,-95 235,-143 51,-32 65,-37 129,-65 130,-59 118,-132 323,157 54,76 113,114 169,175 22,25 48,98 190,54l546 -272c161,-85 470,-436 609,-513 129,-258 248,-163 -24,-505 -256,-323 -76,-275 122,-521 115,-144 122,-104 172,-313 48,-200 76,-27 78,-383 1,-160 -12,-325 -7,-482 -9,-2 -26,-6 -32,-7 -4,-1 -13,-2 -17,-2l-36 -2c-551,-13 -1010,73 -1776,29 -152,-9 -267,-40 -434,-45 -189,-5 -661,-106 -810,-173 -121,-54 -275,-110 -295,-162 -6,147 -9,307 9,454 94,774 201,510 -372,1228 -51,64 -63,82 -111,135l-148 155c-135,112 -189,242 -38,392 68,67 233,154 246,253z"/>
   <path class="fil9" d="M16394 26154c300,29 247,-99 433,3l246 162c261,17 26,-473 -25,-572l-211 -415c-3,-5 -8,-12 -11,-17 -1,-2 -26,-37 -33,-47 -170,-262 -320,-276 -304,-552 160,-100 391,-125 486,-404 66,-193 97,-136 262,-212 59,-27 22,-23 109,-56 116,-44 132,-31 266,-184l186 -319c247,-16 205,-8 358,-118 112,-81 165,-122 223,-259 155,-371 143,-71 319,-416l77 -183 193 -2c42,9 61,24 65,26l109 80c204,162 301,325 440,489 77,91 70,50 136,132 76,94 161,256 252,317 54,-105 -16,-182 -42,-276 -26,-70 -57,-98 -99,-177 -96,-177 -291,-416 -404,-573 -108,-148 -250,-153 -173,-418 345,-1181 -1124,-1269 -1446,-668 -54,100 -42,161 -85,241 -93,147 -268,-34 -585,369l-195 239c-58,57 -103,89 -157,142l-138 133c-51,48 -108,86 -161,136 -182,170 -354,407 -550,590 -144,135 -326,295 -515,333 -84,17 -31,29 -89,-12l-94 -97 -30 221c-241,93 -373,121 -373,397 178,2 150,-44 266,-49 25,260 -181,589 90,1077 143,257 301,308 529,450 147,92 43,52 117,202 198,9 498,95 560,285z"/>
   <path class="fil10" d="M6851 49131c-28,22 7,62 -183,72 -105,6 -127,-7 -205,29 -278,127 -242,44 -367,97l-229 94c-212,76 19,24 -279,82 -92,18 -69,34 -155,79l-728 411c-188,129 -704,592 -823,806 -317,568 412,846 857,860 1096,34 1575,-3 2598,-416 238,-96 347,-103 562,-232l608 -447c97,-134 154,-337 153,-540 -1,-210 -120,-428 -253,-572l-214 -163c-213,-147 -100,-37 -264,-114 -6,-3 -12,-7 -18,-10 -5,-3 -11,-8 -17,-10 -181,-97 -1040,-29 -1043,-26z"/>
   <path class="fil11" d="M12900 46243c11,59 -11,85 11,43l-608 -7c-100,25 -155,65 -264,77 -133,15 -189,-19 -259,60 78,179 883,157 996,161 342,11 783,35 1131,69 563,55 2447,2 2841,85 124,26 441,11 588,13 3510,35 7035,26 10532,-101 197,-7 402,0 598,-11 188,-11 318,-48 543,-53 204,-4 382,-10 570,-27 126,-11 131,-28 246,-51 120,-23 159,-6 184,-107l-164 -45c-339,28 -675,60 -1025,64 -633,6 -627,57 -798,-207l-27 -35c-23,63 -37,38 -150,32l-11187 -37c-606,3 -1336,-25 -1909,19 -308,24 -615,16 -913,38 -302,23 -600,35 -935,20z"/>
   <path class="fil4" d="M39038 1046c122,32 78,49 157,186l377 622c79,175 198,323 286,504l453 771c128,252 172,210 719,-158l282 -179c147,-83 177,-142 320,-170l930 -589c309,-166 217,-167 392,-282 5,-3 12,-7 17,-10l122 -95c127,-96 442,-208 650,-335 36,-22 9,-7 53,-30l173 -100c79,-49 157,-95 207,-175l-805 -139c-232,-8 -239,-57 -412,-78 -174,-21 -294,2 -450,-46l-825 -150c-188,-22 -265,-4 -433,-57 -124,-39 -273,-66 -416,-72 -119,-7 -177,-36 -269,-51 -103,-18 -210,-10 -310,-25 -155,-24 -377,-88 -550,-98 -248,-14 -1015,-185 -1140,-185 -9,104 -16,62 20,137l453 806z"/>
   <path class="fil12" d="M14079 44095l-34 57c-113,164 -347,370 -497,483l-163 109c-274,199 -476,400 -797,589 -423,249 -732,423 -363,844 48,55 32,6 78,101l608 7c-22,42 1,16 -11,-43 122,-66 1353,-233 1637,-316 114,-33 233,-23 365,-48 113,-21 216,-54 328,-75 131,-24 258,-12 372,-40 93,-23 199,-69 295,-78 853,-83 1041,-170 902,-1016 -46,-284 42,-113 -95,-393 -16,-32 -17,-44 -33,-77 -39,-80 -55,-51 -62,-126 -65,-29 -25,-10 -67,-32 -356,-189 -126,-55 -357,-138l-16 -557c-236,-38 -350,47 -570,49 -294,3 -416,-39 -466,-39 -135,0 -102,-22 -125,328 -153,12 -459,25 -598,55 -171,37 -251,418 -308,340 -5,-6 -16,10 -25,15z"/>
   <path class="fil13" d="M23731 25652c-19,101 121,105 285,265 132,129 76,117 292,334 43,43 10,-5 35,60l20 64c3,7 6,14 9,20 57,124 41,-11 66,167 134,-27 495,-323 651,-437l375 -277c146,-108 346,-278 497,-351l220 -198c38,-88 23,-305 30,-417 223,58 58,163 264,278 -34,-94 -56,-104 -100,-226 -39,-110 -64,-114 -91,-230 -107,-463 -24,-1347 112,-1743 112,-326 66,-340 124,-497l117 -531c25,-100 29,-186 45,-281 22,-129 45,-148 72,-258 12,-49 18,-101 27,-134l65 -254c34,-160 -21,-68 74,-135 151,182 -35,403 -55,833l45 -129c9,-43 6,-76 18,-116 13,-47 51,-103 66,-208 43,-315 85,-311 89,-466 116,-33 125,-42 216,-76 333,-123 403,-138 483,-507 72,-331 -5,-560 -247,-765l-86 -99c-1,-3 -3,-12 -4,-15 -1,-2 -2,-10 -3,-15l-171 10 3 -124c-113,83 -42,83 -191,124 -136,38 -102,40 -220,104 -208,112 -263,280 -349,290 -179,-22 -37,-120 -299,-72 -47,92 -53,337 25,471l43 91c110,303 247,303 48,729 -156,335 -73,425 -208,633 -32,48 -69,130 -91,181l-454 1254c-47,133 -87,271 -136,413l-303 806c-31,76 -31,136 -60,213 -155,400 -130,304 -354,487 -346,284 -598,423 -899,646l-95 87z"/>
   <path class="fil4" d="M39124 4212l117 -123c5,-3 12,-7 17,-9l164 -112c109,-89 220,-110 442,-264 106,-73 97,-63 233,-129 10,-89 8,-130 -34,-199l-671 -1147c-82,-145 -114,-151 -156,-216l-170 -321c-62,-109 -112,-195 -181,-309 -83,-138 -152,-213 -163,-332 -71,-231 -239,-260 -315,-456l-83 -148c-3,-5 -12,-8 -15,-20 -3,-12 -10,-14 -15,-20 -134,141 -114,111 -129,316 -13,181 -61,107 -93,276 -13,72 -5,143 -16,210 -18,112 -18,31 -56,121 -52,123 2,223 -55,328 -126,234 -43,31 -82,335l-179 603c-31,182 6,154 -61,315 -57,137 -27,224 -68,343 -38,110 -29,6 -59,131 -15,62 -8,115 -18,178 -17,108 -74,179 -92,312l-141 640c-72,162 -26,171 -68,318 -28,98 -69,27 -94,315 -17,194 -60,167 -83,317 188,-11 130,-35 291,-148l929 -562c210,-119 96,-108 321,-218l201 -104c58,-37 79,-58 126,-91 50,-35 82,-52 133,-85 77,-51 0,-49 121,-45z"/>
   <path class="fil14" d="M35112 34053c143,-36 171,-77 294,-136 472,-227 1253,-228 1731,-113 153,37 214,-2 342,69 68,37 189,108 244,125 73,-112 15,-163 81,-255 71,89 23,198 60,293 37,94 112,71 225,98 -73,71 -121,57 -123,57 -96,25 -120,-39 -112,198 85,32 45,7 85,84 116,223 84,182 114,412 20,152 26,552 -35,669 -61,117 -11,-21 -73,109 -60,125 -36,148 -185,153 -60,2 -52,-36 -163,76l-98 147c-59,106 -74,138 -234,113 -15,-268 18,-288 74,-495 96,-356 126,-175 111,-418l-389 -52c-21,-37 -9,-30 -27,-72 -3,-6 -6,-15 -9,-21l-35 -70 -271 8 -81 -134c-162,34 -241,146 -515,201 -198,40 -13,60 -272,88 -80,9 -630,212 -906,77 -71,-35 0,-34 -109,-66 -41,-12 -102,-15 -139,-25 -178,-49 -57,-81 -258,-100 67,152 114,107 388,215 35,14 83,34 121,58 -25,97 -21,290 -45,359 -49,145 -55,-83 -92,311 -11,121 -55,224 -71,333 -45,299 -50,711 234,878l347 167c122,43 270,35 358,72 19,44 69,229 -18,252l-6 44c67,103 -42,139 -19,348 112,73 237,89 400,77 94,-130 85,-77 147,-229l49 -104 4 -34 26 -91c9,-115 40,-168 87,-232 393,-25 872,-57 1016,-505 67,-209 68,-102 90,-240 26,-163 39,-354 123,-497 180,-10 179,22 269,-56 136,-118 -2,-216 96,-372 14,-22 46,-75 62,-100 76,-123 53,-89 102,-260 184,-647 -124,-973 -127,-1150 141,-125 177,-6 173,-252 -7,-4 -236,-108 -240,-109 -2,-142 -41,-219 -81,-330 -82,30 -133,134 -172,212 -219,-34 -416,-126 -620,-138l-1136 -3c-199,5 -682,169 -792,358z"/>
   <path class="fil15" d="M52715 41738c10,-102 16,-56 51,-151l184 -383c111,-243 160,-514 262,-748l142 -423c49,-258 145,-392 69,-685 -224,-7 -246,113 -274,310 -24,169 -78,270 -109,435 -25,135 -51,131 -76,224l-299 815c-145,303 -266,642 -448,938l-319 521c-148,201 -261,435 -300,493l-45 58c-5,6 -21,22 -27,28 -4,4 -10,10 -13,15l-807 985c-65,77 -71,47 -152,117 -61,53 -75,88 -149,151 -93,79 -344,376 -437,374 -109,-2 -321,-554 -361,-665 -40,-109 -46,-74 -80,-188l-117 -377c-60,-130 -48,-9 -94,-124 0,-235 -3,-291 -49,-481 -104,-430 -12,-996 -41,-1440 -281,1 -196,116 -230,383 -47,364 26,707 38,1049 7,183 50,308 87,460 17,70 16,177 38,266 92,375 261,685 380,976 56,137 158,214 157,389 -154,117 -260,255 -423,358l-149 99c-125,97 -272,149 -410,243 -24,16 -53,38 -79,57l-322 188c-175,81 -298,196 -524,247 -220,49 -294,-6 -425,-77 -896,-484 -739,-457 -1465,-1120 -4,-4 -11,-9 -15,-13l-434 -564c-232,-356 -197,-540 -503,-475 -22,142 -1,177 58,266 196,291 385,653 647,902l113 126c230,281 842,775 1143,952 236,138 302,98 311,272 -177,87 -296,8 -262,302 221,50 746,-204 970,-325l576 -294c412,-234 368,-238 622,-143 350,131 879,37 1221,26 283,-8 482,-73 758,-111 105,-14 87,-27 158,-55 110,-43 233,-38 347,-89l317 -118c152,-58 325,-73 312,-293 -230,-138 -461,56 -686,135 -72,25 -119,27 -196,48 -63,17 -86,31 -164,55 -383,116 -548,90 -782,141 -256,56 -1061,175 -1166,-62 56,-61 162,-126 241,-179 192,-128 400,-377 592,-489l258 -185c116,-93 210,-227 320,-331 48,-46 74,-52 119,-98l314 -338c310,-349 489,-593 766,-973l262 -416c146,-197 265,-457 392,-665 623,-92 725,-118 1256,-314l109 -56c48,-25 80,-29 134,-55l243 -139c81,-52 154,-90 233,-147 140,-101 211,-298 -37,-270 -123,14 -218,122 -317,183 -156,97 -220,142 -440,195 -216,53 -513,315 -975,277z"/>
   <path class="fil9" d="M35112 34053c-15,70 -248,256 -303,328l-187 242c-55,108 -185,351 -184,449 201,19 80,52 258,100 36,10 98,13 139,25 109,32 38,31 109,66 276,135 826,-68 906,-77 259,-28 74,-48 272,-88 274,-55 353,-166 515,-201l81 134 271 -8 35 70c3,6 6,14 9,21 18,42 6,35 27,72l389 52c15,243 -15,62 -111,418 -56,207 -89,227 -74,495 160,25 175,-7 234,-113l98 -147c112,-113 104,-74 163,-76 149,-5 125,-28 185,-153 62,-130 12,8 73,-109 61,-117 55,-517 35,-669 -30,-230 1,-189 -114,-412 -40,-77 0,-51 -85,-84 -9,-237 16,-173 112,-198 1,0 50,14 123,-57 -113,-27 -188,-3 -225,-98 -37,-95 11,-204 -60,-293 -66,92 -9,143 -81,255 -55,-16 -176,-88 -244,-125 -129,-71 -190,-32 -342,-69 -478,-115 -1259,-114 -1731,113 -123,59 -150,100 -294,136z"/>
   <path class="fil12" d="M28428 45673c-120,2 -216,73 -296,137 -117,93 -126,181 -138,359l27 35c171,264 165,213 798,207 350,-3 686,-35 1025,-64 20,-63 50,-97 95,-141 171,-167 175,-230 313,-476l237 -520c39,-133 -2,-92 67,-207 77,-127 114,-362 214,-547l68 -120c98,-151 36,-110 79,-246l155 -380c20,-82 1,-161 27,-212 -10,-3 -20,-8 -28,-12 -238,-120 51,-46 -496,-267 -107,-43 -153,-101 -344,-90 -160,222 -93,178 -154,307 -19,41 -26,39 -48,87 -98,216 -103,156 -224,343 -38,58 -26,48 -67,99 -44,54 -28,30 -64,72l-453 368c-21,373 61,790 -73,951 -112,135 -480,312 -719,315z"/>
   <path class="fil13" d="M19874 33656c-406,86 -264,60 -486,-208l-174 -176c-145,-142 22,-25 -154,-172 -4,-4 -11,-9 -15,-13 -74,-63 -18,-25 -105,-79 -96,-59 -261,-151 -299,-226 -78,-154 -39,-415 -71,-530 -24,-85 21,-2 -29,-54 -5,148 -9,395 5,537 16,151 211,364 -41,510 -136,79 -389,159 -541,248 -102,59 -285,105 -394,177 -192,125 -72,31 -221,100 -180,84 -301,93 -474,183 -86,45 -111,54 -201,95l-386 181c-146,57 -7,2 -91,49l-112 49c-6,3 -14,6 -20,9 -315,175 136,-8 -244,101 -90,26 -45,23 -94,47 -85,42 -137,28 -231,72 -134,62 -259,115 -388,180 -336,169 -451,35 -927,-18 -184,-21 -376,-12 -562,-11 -77,0 -201,-5 -273,5 -115,15 -98,46 -213,78 -369,105 -163,91 -368,209 -12,252 -48,259 183,294 253,38 570,11 812,-75 559,-197 362,315 365,366 11,204 221,138 379,43l351 -245c5,-4 11,-9 15,-13 143,-129 10,-45 184,-105 7,-3 15,-5 22,-8l738 -267c119,-26 84,-42 168,-76 82,-33 116,-16 198,-49 85,-35 41,-47 164,-71 213,-41 379,-72 590,-157 224,-91 127,-112 303,-141 224,-37 114,-37 399,-100l928 -298c111,-43 41,-47 163,-73 318,-69 164,-83 377,-110l703 -202c83,-50 -5,48 69,-55z"/>
   <path class="fil15" d="M3613 40355c43,47 -2,-10 40,60 104,173 74,228 120,342l228 556c47,81 25,77 58,184 48,155 135,212 114,415 -189,62 -477,109 -708,96 -214,-12 -645,-120 -713,-46 -112,187 158,183 294,228 159,53 313,50 499,49 632,-2 821,-262 873,76 74,126 155,282 232,413l338 530c161,308 114,200 347,496 46,59 80,21 62,197l-994 217c-263,51 -927,53 -1181,29 -245,-23 -144,-100 -756,-83 -9,251 44,222 267,266l866 84c483,7 834,-9 1307,-110 161,-34 227,-38 363,-94 416,-171 426,2 519,102 436,468 186,262 585,321 -24,-132 4,-96 -95,-213 -18,-22 -18,-21 -37,-44l-447 -503c-30,-35 -47,-51 -75,-87 -110,-140 -211,-278 -314,-420l-223 -348c-138,-217 44,-160 396,-594 77,-95 147,-196 206,-288 63,-99 136,-165 199,-257l139 -242c12,-21 33,-51 41,-68l144 -320c74,-151 281,-550 218,-683 -36,-77 -110,-78 -165,-56 -112,45 -55,37 -100,157l-443 939c-128,230 -669,951 -860,1009 -78,-42 -166,-214 -213,-295 -146,-251 -97,-222 -153,-367 -61,-158 -371,-738 -482,-1059l-369 -1179c-35,-393 -44,-207 -93,-429 -15,-68 -16,-159 -36,-237 -17,-66 -44,-112 -56,-183 -15,-87 -7,-178 -18,-264 -13,-106 -25,-77 -47,-191l-110 -922c-31,-377 -2,-1353 -47,-1477l-167 -18c-118,163 -88,283 -90,543 -10,872 59,1710 247,2561 22,97 7,174 34,267 26,88 54,135 78,243 19,88 37,157 61,238 27,91 126,387 118,458z"/>
   <path class="fil11" d="M31972 47529c20,-58 22,-189 77,-253 233,0 19,-26 191,170 218,248 424,2 864,114 50,183 47,418 29,622 -247,144 -363,161 -732,164 -223,2 -663,18 -846,-23 -216,-48 -388,-360 -223,-592 168,-236 409,-134 639,-202zm-58 -190l0 81c-241,162 -45,44 -355,85 -138,18 -227,109 -285,198 -219,333 -59,430 -27,489 45,82 28,120 34,215 75,28 132,32 203,65 80,37 -49,27 210,52 326,32 458,-5 779,69l6197 6c92,-10 156,-38 247,-49 210,-24 409,17 589,-57 230,-95 263,-42 263,-203 -226,-149 -1212,-194 -1513,-229 -557,-65 -3543,-34 -4416,-33 -790,1 -547,58 -634,-281 -50,-58 24,-134 -78,-239l-155 -80c-189,-33 -379,156 -588,55 -97,-47 -99,-129 -146,-252l-271 0c-31,81 -1,64 -54,109z"/>
   <path class="fil16" d="M46446 14044c110,82 221,204 348,277 72,41 144,82 205,124 101,70 67,84 233,71l38 100 764 264c209,74 628,115 874,154 710,113 2340,72 2494,114l2349 228c72,18 155,16 216,29 107,23 87,43 189,71 177,48 340,-14 445,101 130,13 222,-3 324,45 106,100 142,46 307,84 99,23 52,36 150,66 186,58 -1,-31 336,102 138,54 347,111 436,199 111,6 104,18 198,40 96,74 393,202 541,277l353 215c516,358 945,732 1356,1221 98,116 156,224 242,311 94,56 48,-43 68,119 7,117 -10,-12 146,231l405 653c3,5 8,11 11,15l333 526 7 93 56 49c75,95 14,67 235,327 222,261 433,649 715,844l60 17c-12,96 110,157 181,222 57,52 177,163 247,215 82,60 460,308 559,331 244,33 589,308 789,152 -41,-177 -135,-64 -342,-191l-79 -16c-110,-7 -168,-40 -239,-96l-173 -97c-402,-236 -194,-93 -608,-422 -17,-14 -43,-33 -61,-48 -55,-46 -55,-61 -114,-98l-98 -18c-38,-121 -54,-128 -121,-207l-215 -272c-46,-63 -209,-230 -335,-420l-326 -466c-36,-175 -24,-85 -98,-196l-454 -771c-3,-5 -8,-11 -12,-15l-94 -150c-52,-71 -82,-101 -123,-180 -161,-310 -1067,-1332 -1300,-1433 -119,-5 -59,-5 -136,-89 -35,-38 -66,-71 -105,-111 -48,-21 -59,-33 -96,-66 -32,-29 -7,-4 -41,-43 -83,-94 -56,-72 -235,-160 -56,-27 -62,-26 -114,-54l-313 -165c-99,-40 -212,-116 -292,-154 -60,-28 -107,-29 -163,-53 -51,-22 -91,-56 -138,-84 -42,-38 -101,-58 -162,-76l-366 -126c-159,-60 -363,-156 -543,-183 -649,-99 -436,-138 -586,-172 -197,-45 -22,39 -409,-81l-1113 -137 -139 -3c-251,-35 -455,-81 -719,-86 -268,-5 -556,-7 -804,-20l-106 -2 -1410 -31c-71,9 -191,-35 -313,-39 -676,-23 -578,-90 -993,-121 -64,30 -81,21 -148,14 -81,-26 -182,-63 -251,-79 -125,-30 -166,-27 -283,-71 -155,-57 -367,-124 -514,-215 -157,-98 -317,-157 -468,-266 -140,-101 -263,-242 -375,-332 -228,29 -97,198 -97,197 2,-4 9,15 13,22z"/>
   <path class="fil17" d="M26475 25158c62,158 195,260 252,329l322 300c68,51 99,82 166,133l348 250c397,298 1359,854 1824,979 633,170 567,240 1447,397 94,17 184,11 277,29 78,15 163,54 241,69 97,19 181,13 268,35 488,122 1019,126 1562,286l689 234c91,36 135,36 216,82 77,43 23,21 110,55 193,75 320,171 478,279 215,147 460,375 644,577 99,108 181,215 281,344l296 328c456,399 226,251 728,494 163,79 1497,120 1753,134 193,10 292,65 479,106l355 106c181,49 549,249 720,367 104,72 90,95 237,88 8,-181 -125,-255 -364,-373 -923,-457 -1414,-507 -2460,-508 -118,0 -236,-2 -355,-5 -410,-11 -905,-400 -1134,-717 -430,-597 -905,-1047 -1577,-1383 -256,-128 -634,-226 -795,-295l-608 -140c-118,-16 -176,-52 -293,-77l-644 -113c-439,-51 -857,-132 -1275,-200l-1409 -429c-278,-124 -97,-91 -354,-178 -193,-66 -711,-376 -899,-491 -84,-51 2,3 -63,-47 -223,-172 -371,-223 -759,-545 -339,-282 -185,-177 -370,-361 -369,-368 -299,-584 -359,-758 -52,-149 -49,-71 -47,-328 2,-304 45,-409 76,-658 45,-360 26,-302 108,-659 35,-151 63,-49 93,-243 24,-153 -8,-198 55,-334l130 -612c20,-431 205,-652 55,-833 -94,67 -39,-25 -74,135l-65 254c-8,33 -15,86 -27,134 -26,110 -50,129 -72,258 -16,94 -20,181 -45,281l-117 531c-58,158 -12,171 -124,497 -136,396 -219,1280 -112,1743 27,116 52,120 91,230 44,123 66,132 100,226z"/>
   <path class="fil18" d="M37722 6640c-117,38 -25,-2 -89,73l-883 1103c-147,183 -167,125 -345,385l-2608 3149c-128,153 -203,246 -320,385 -64,77 -111,130 -167,186l-481 604c-60,66 -127,119 -172,179l-1965 2354c-63,65 -98,152 -158,222l-653 787c-324,445 -874,982 -1226,1459l-402 496c-108,120 -214,259 -335,398 -135,156 -537,685 -647,774l-3 124 171 -10 2858 -3449c37,-39 55,-52 82,-81 31,-33 3,-2 37,-43l2001 -2399c4,-4 10,-9 13,-13l112 -159c326,-440 269,-238 493,-563l785 -984c83,-108 228,-284 323,-382l3037 -3670c58,-76 97,-134 152,-202l163 -187c67,-73 114,-111 164,-182 52,-105 213,-285 308,-375 78,-74 261,-274 296,-356l-249 286c-85,101 -63,68 -184,88 34,-281 106,-172 188,-376 -110,94 -200,270 -299,379z"/>
   <path class="fil19" d="M40547 4147l1424 2427c4,7 17,27 21,34 3,5 8,11 11,16l150 225c34,60 46,100 83,163l1201 1996c73,138 -29,14 122,209 3,4 8,11 11,16 117,153 48,94 105,219 10,21 76,131 89,156l847 1464c66,136 103,142 182,276l376 628c3,5 7,12 10,17l128 219c45,116 94,206 157,316l501 878 367 616 112 23c-4,-7 -11,-26 -13,-22 0,1 -131,-168 97,-197 -28,-67 -47,-102 -66,-195 -49,-17 14,7 -131,-176l-449 -740c-3,-6 -7,-13 -10,-18l-1705 -2913c-33,-51 -56,-104 -88,-156l-1047 -1745c-3,-5 -7,-12 -10,-17l-2205 -3824c-137,-65 -93,-65 -175,-210 -83,-147 -36,-154 -177,-171 -37,50 -57,87 -53,161 6,125 88,122 135,328z"/>
   <path class="fil20" d="M35374 45014c20,162 209,125 293,73 101,-62 221,-301 492,-38l574 425c179,101 78,84 227,149l997 443c56,20 147,24 207,40 287,78 274,153 321,200l157 121c74,-313 408,141 471,-635 17,-214 -9,-321 237,-317 256,4 317,46 484,120 -60,-182 -175,-97 -366,-158 -73,-23 -72,-57 -193,-39 -126,19 -28,28 -196,85l-109 -180c-372,-21 95,183 -655,-96 -20,-7 -45,-13 -63,-20l-1301 -739c-54,-43 -76,-75 -114,-105l-121 -58c-140,77 -448,427 -609,513l-546 272c-142,44 -167,-29 -190,-54z"/>
   <path class="fil20" d="M38557 38031c1,183 56,142 88,347 23,147 68,209 87,353l1181 -414c70,-28 60,-39 128,-61l1023 -391c111,-56 477,-205 565,-209 206,-10 473,32 673,-231 4,-5 9,-11 12,-16 3,-5 9,-11 12,-16 200,-278 162,-262 150,-697 -106,-74 -68,8 -112,-140 -262,-15 -241,-26 -380,89 -51,43 -80,74 -112,124l-111 167 -142 -126c-43,-60 -51,-79 -111,-101 -37,62 -55,99 -55,202 0,273 20,277 -185,347l-349 111c-305,120 -715,206 -1065,323 -81,27 -129,20 -208,40 -169,42 -54,66 -350,107 -98,13 -593,181 -741,190z"/>
   <path class="fil21" d="M37059 5868c44,-107 55,-42 301,-213l488 -301c82,-58 108,-49 177,-95 539,-366 1098,-690 1599,-1035 42,-93 2,-48 100,-119 215,-155 253,-162 307,-367 -67,1 -50,-4 -107,9 -103,23 -244,128 -371,220 -112,82 -314,234 -429,246 -120,-4 -43,-5 -121,45 -51,33 -83,51 -133,85 -46,32 -68,53 -126,91l-201 104c-226,110 -111,99 -321,218l-929 562c-161,113 -102,137 -291,148 23,-150 66,-123 83,-317 25,-288 66,-217 94,-315 42,-147 -5,-156 68,-318l141 -640c18,-134 75,-204 92,-312 10,-63 3,-116 18,-178 30,-125 21,-21 59,-131 41,-119 11,-206 68,-343 67,-161 30,-133 61,-315l179 -603c40,-304 -44,-101 82,-335 57,-106 3,-205 55,-328 38,-90 38,-9 56,-121 11,-67 2,-138 16,-210 32,-169 79,-95 93,-276 15,-205 -5,-175 129,-316 5,6 12,8 15,20 3,12 11,15 15,20l83 148c75,195 244,224 315,456 101,85 86,110 166,223l524 853c42,69 4,13 33,96 37,106 236,375 304,488 93,155 64,165 114,244 37,58 5,-10 44,58 3,5 6,12 9,17l109 172c143,135 29,242 251,319l130 -87c-27,-118 -427,-738 -517,-922 -14,-28 -13,-23 -39,-64l-201 -316c-126,-226 -592,-960 -610,-1084l-453 -806c-36,-75 -29,-33 -20,-137 125,0 892,171 1140,185 173,10 395,74 550,98 100,16 208,8 310,25 92,16 149,45 269,51 -120,-112 -433,-67 -602,-125 -107,-37 -174,-56 -309,-62 -318,-13 -201,11 -325,-68l-1007 -128c-106,-11 -309,-195 -377,36 -32,108 4,-5 -1,96 -7,142 -57,94 -69,241 -9,112 12,130 -32,223 -129,276 -42,128 -81,374 -33,205 -26,-63 -91,376 -29,192 -81,81 -97,357 -13,235 -79,127 -100,357 -27,293 -100,96 -106,347 -8,391 -56,226 -84,418 -63,443 -63,191 -91,373 -11,70 1,139 -18,207 -41,147 -36,4 -77,159 -47,179 5,206 -72,398l-172 751c-114,243 -10,228 -85,379 -41,82 -49,24 -66,141 -14,89 5,143 -24,229 -24,72 -78,65 -41,196 8,28 34,63 43,73 82,78 -21,21 109,57z"/>
   <path class="fil22" d="M32848 37440c189,25 317,89 515,117 -8,163 -105,265 -184,424 -34,68 -25,74 -38,161 3,190 13,214 195,280 313,114 399,225 575,319 -5,95 -103,696 -146,777 -68,128 -47,196 -63,356 -18,180 -15,77 -60,172 -42,88 -15,110 -25,209 -30,286 -49,-58 -91,347 -15,142 -7,274 -54,415 -33,98 -45,279 -8,379l142 296 54 26c-19,-269 -143,-7 -95,-787 12,-201 58,-170 84,-346 8,-54 7,-127 20,-197 28,-150 32,-57 65,-151 37,-108 6,-268 53,-395 56,-150 50,-160 77,-348 23,-159 71,-161 82,-352 8,-155 8,-261 36,-406 392,276 506,644 746,-68 24,-71 48,-84 73,-169 68,-237 120,-632 211,-767l514 19 131 10 6 -44c-127,-56 -565,-80 -761,-76 -136,3 -265,7 -377,-26l-677 -166c-134,-35 -197,-100 -324,15 -62,57 -30,66 -130,74 -210,18 -315,-68 -356,-79 -50,-14 -128,-10 -189,-20z"/>
   <path class="fil13" d="M32778 45195l-113 435c-52,145 -28,-33 -86,179l-105 413c-31,153 -136,191 -87,753 184,48 126,115 649,79 85,-255 35,4 101,-365 29,-161 14,-43 61,-154 26,-62 23,-117 46,-194 19,-63 44,-94 63,-158l122 -367c45,-150 69,-123 112,-150 25,-148 264,-496 340,-619 82,-133 127,-194 313,-130 192,66 144,160 323,-26 -216,58 -102,83 -361,-15 -454,-174 -265,-140 -490,-245 -183,-85 -33,52 -160,-100l-203 -129c-4,-4 -11,-10 -14,-14 -4,-4 -11,-13 -15,-16l-30 -37c-48,134 -2,10 -69,115 -92,143 -386,640 -398,745z"/>
   <path class="fil23" d="M33140 38142c13,-87 4,-93 38,-161 79,-159 176,-261 184,-424 -197,-29 -325,-92 -515,-117l-506 -117c-90,-29 -66,-43 -144,-66 -61,-18 -103,-11 -162,-32 -77,-27 -27,-37 -150,-63 -66,-14 -100,-10 -162,-30 -88,-28 -58,-37 -150,-64l-623 -193c-133,-40 -212,-36 -233,-176 -24,-160 43,-233 -52,-346 -101,38 -63,110 -105,214 -148,6 -96,25 -174,-51 -52,-50 -220,-350 -400,-330 -213,24 -199,333 -184,482 64,598 726,517 812,543l1212 497c222,106 555,187 749,283 112,55 431,150 565,153z"/>
   <path class="fil24" d="M36237 37818c62,-3 444,43 534,57 190,31 158,197 213,378l233 664c49,178 -39,27 -28,250 469,377 509,625 465,1118 -11,124 -1,282 -21,399 -21,116 -70,152 -83,304 -13,157 5,228 -48,370 -43,116 -66,250 -78,387 159,-113 136,-431 186,-608 68,-243 60,-398 98,-667 39,-279 58,-382 51,-707 -20,-867 -113,-711 464,-798l458 -65 52 -170c-19,-144 -65,-206 -87,-353 -31,-205 -87,-164 -88,-347 -81,-78 -88,-84 -235,-83 -301,2 -683,23 -962,-15 -367,-49 -144,-105 -532,-115 -499,-13 -240,-68 -566,-92l-26 91z"/>
   <path class="fil25" d="M38643 46427l0 102c26,16 53,27 82,43 7,4 31,16 39,21 7,4 14,9 21,13 7,4 16,10 21,14 6,4 15,9 22,15l1 516c158,73 68,101 180,179 72,51 233,78 339,60 269,-46 345,-512 429,-770 56,-173 124,-506 124,-692 0,-229 -35,-179 -63,-333 -167,-74 -228,-116 -484,-120 -247,-4 -220,103 -237,317 -63,776 -398,323 -471,635z"/>
   <path class="fil26" d="M37059 5868c27,135 276,264 368,338 69,56 116,109 187,165 90,73 138,95 108,269 98,-109 188,-285 299,-379l538 -656c30,-39 78,-79 107,-110 142,-153 262,-369 429,-548l398 -471c80,-86 166,-156 214,-258l-82 7c-502,345 -1060,669 -1599,1035 -69,47 -94,38 -177,95l-488 301c-246,171 -257,106 -301,213z"/>
   <path class="fil27" d="M31972 47529c-230,68 -471,-35 -639,202 -165,232 7,545 223,592 183,40 623,25 846,23 369,-4 485,-20 732,-164 19,-204 21,-439 -29,-622 -441,-112 -646,133 -864,-114 -172,-196 41,-170 -191,-170 -55,64 -57,195 -77,253z"/>
   <path class="fil28" d="M19874 33656c12,-107 10,-272 1,-381 -11,-129 -50,-240 -51,-379l67 -18c-37,-124 -128,-271 -188,-368 -75,-122 -140,-232 -223,-348l-936 -5 -5 40c50,52 5,-31 29,54 33,115 -7,376 71,530 39,76 203,167 299,226 87,54 31,16 105,79 4,4 11,9 15,13 176,148 9,30 154,172l174 176c222,268 80,294 486,208z"/>
   <path class="fil19" d="M41633 2622c-80,124 -405,294 -558,394l-577 343c-1,137 19,141 27,265 121,-62 36,-26 123,-87 32,-23 53,-33 99,-61 210,-129 473,-346 615,-353 74,-12 201,-110 262,-154l270 -190c84,-56 106,-44 191,-108 129,-97 230,-156 359,-237l1132 -714c218,-147 670,-377 760,-481 2,-3 7,-11 8,-8 3,7 5,-5 22,-21l32 -32c4,-4 13,-12 19,-19 -5,-90 11,-139 -56,-178 -101,-59 -184,25 -184,25 -50,80 -128,126 -207,175l-173 100c-44,24 -17,9 -53,30 -208,127 -523,240 -650,335l-122 95c-5,3 -12,7 -17,10 -175,115 -82,116 -392,282l-930 589z"/>
   <path class="fil29" d="M20462 26608c-61,134 -29,-23 -189,130l-367 287c-256,198 -106,156 -224,170l-11 78c179,87 88,70 163,224 71,147 375,606 653,378 352,-290 109,-894 40,-1169 154,-186 136,-82 279,-148 53,-24 -47,-22 114,-63 70,-1 229,179 419,58l168 -105c93,-50 93,-42 201,-77 172,-56 -45,-8 121,-82l380 -168c119,-58 132,-15 183,-124l-959 438c-26,15 -54,25 -74,35 -103,54 -11,42 -141,81 -268,30 -15,-264 -635,36 -31,15 -37,47 -121,21z"/>
   <path class="fil30" d="M39706 4217c-49,102 -134,172 -214,258l-398 471c-167,179 -287,395 -429,548 -29,31 -76,71 -107,110l-538 656c-82,204 -154,95 -188,376 121,-19 99,14 184,-88l249 -286c68,-25 162,-190 331,-351l158 -196c4,-4 11,-9 15,-13l90 -95c31,-46 27,-40 56,-80 38,-51 14,-19 54,-80l500 -616c187,-236 217,-236 439,-539l391 -477c43,-178 91,-35 107,-291 -145,35 -148,91 -218,181l-483 508z"/>
   <path class="fil31" d="M38721 1049c10,119 80,194 163,332 69,114 119,201 181,309l170 321c42,65 74,71 156,216l671 1147c42,69 44,110 34,199 -135,66 -127,56 -233,129 -222,154 -333,175 -442,264l-164 112c-5,3 -12,7 -17,9l-117 123c115,-12 317,-164 429,-246 127,-92 268,-197 371,-220 57,-13 41,-8 107,-9 -54,205 -93,213 -307,367 -98,71 -58,26 -100,119l82 -7 483 -508c70,-90 73,-146 218,-181 -16,256 -64,113 -107,291 66,8 58,59 98,141 36,75 80,142 149,187 -47,-205 -129,-203 -135,-328 -3,-74 16,-112 53,-161 141,17 94,25 177,171 82,145 38,145 175,210 -43,-158 -163,-248 -194,-384l320 -209c124,-62 -20,21 116,-90 136,-110 205,-92 302,-234 -142,7 -405,224 -615,353 -47,29 -67,39 -99,61 -87,61 -2,25 -123,87 -8,-124 -28,-127 -27,-265l577 -343c152,-101 478,-270 558,-394 -143,27 -173,86 -320,170l-282 179c-547,368 -591,410 -719,158l-453 -771c-88,-181 -207,-329 -286,-504l-377 -622c-78,-136 -34,-154 -157,-186 18,125 484,858 610,1084l201 316c25,41 25,36 39,64 90,185 490,804 517,922l-130 87c-223,-78 -108,-184 -251,-319l-109 -172c-3,-5 -6,-12 -9,-17 -39,-68 -7,-1 -44,-58 -50,-78 -21,-88 -114,-244 -68,-114 -267,-383 -304,-488 -29,-83 8,-26 -33,-96l-524 -853c-79,-113 -65,-138 -166,-223z"/>
   <path class="fil32" d="M31914 47340c53,-44 23,-28 54,-109l271 0c47,123 50,205 146,252 209,101 399,-88 588,-55l155 80c102,105 28,182 78,239 -50,-299 -33,-174 -152,-353 123,-287 70,77 103,-436 18,-285 371,-1140 385,-1293 -43,27 -67,0 -112,150l-122 367c-19,64 -44,95 -63,158 -23,77 -20,132 -46,194 -47,110 -33,-7 -61,154 -66,369 -16,110 -101,365 -522,37 -464,-31 -649,-79 -49,-562 56,-600 87,-753l105 -413c58,-212 33,-34 86,-179l113 -435 -263 575c-132,254 -11,119 -132,434l-133 741c-181,82 -96,21 -161,180 -74,182 -88,-3 -174,215z"/>
   <path class="fil8" d="M36233 37851l-49 104c-62,152 -54,99 -147,229 -164,13 -289,-4 -400,-77 -23,-210 86,-245 19,-348l-131 -10c-32,221 -46,74 -101,232 -159,460 318,573 665,452 170,-59 150,-80 232,-211 79,-127 85,-165 82,-366l-169 -5z"/>
   <path class="fil33" d="M4419 42317c-52,-338 -242,-78 -873,-76 -186,1 -340,3 -499,-49 -135,-45 -406,-41 -294,-228 68,-74 499,34 713,46 231,13 519,-34 708,-96 21,-203 -66,-260 -114,-415 -33,-108 -11,-104 -58,-184l-228 -556c-46,-114 -17,-169 -120,-342 -42,-70 3,-13 -40,-60 -15,130 155,617 212,764 41,106 41,28 77,167l81 223c3,8 5,15 7,23 3,8 3,16 6,24 51,177 135,118 108,246 -41,196 -827,132 -913,123 -159,-17 -597,-305 -546,230 313,102 391,136 792,136 800,-1 512,-55 841,-92 87,99 49,74 140,119z"/>
   <path class="fil34" d="M56231 15850c46,28 87,63 138,84 57,24 104,25 163,53 80,38 193,114 292,154 -87,-154 -313,-153 -369,-252l-8 -59c0,0 183,-532 62,-649 -155,-63 -184,-50 -314,23 -44,305 29,409 36,646z"/>
   <path class="fil34" d="M54925 15620c-102,-48 -194,-33 -324,-45 -5,213 -244,110 -359,461 21,25 82,293 410,67 5,-3 12,-7 16,-10 111,-82 3,54 95,-172 58,-142 53,-91 58,-295l103 -6z"/>
   <path class="fil35" d="M61868 21775c-52,160 -179,138 -362,234l-21 229c497,33 410,-123 536,-331 157,-7 388,172 652,73 42,-107 5,-148 -77,-191 -93,-48 -161,-52 -280,-52 208,127 301,14 342,191 -200,156 -545,-119 -789,-152z"/>
   <path class="fil36" d="M61996 21624c72,56 129,89 239,96 -8,-112 2,-122 73,-210 58,-73 24,-15 67,-98 26,-50 29,-59 56,-106 32,-57 78,-168 42,-266 -36,-98 -144,-70 -262,-60 -133,224 -105,325 -131,628l-84 16z"/>
   <path class="fil36" d="M57623 16630c39,40 70,73 105,111 77,83 17,84 136,89 43,-82 428,-397 346,-590 -62,-146 -256,-74 -324,34 -41,65 -109,290 -135,381 -75,-5 -46,-6 -128,-25z"/>
   <path class="fil36" d="M60821 20734c67,79 82,86 121,207l98 18c-36,-149 56,-84 160,-320 79,-179 117,-150 90,-425l-253 -8c-145,440 -49,208 -114,518l-102 10z"/>
   <path class="fil36" d="M56352 16111c-94,-22 -87,-33 -198,-40 -34,143 -35,61 -230,220 -312,255 7,520 262,235 117,-131 82,-277 166,-416z"/>
   <path class="fil36" d="M59040 18012c133,-27 47,2 129,-48 60,-37 31,-24 72,-68 94,-101 200,-190 241,-332 33,-112 -20,-126 -61,-204 -201,-10 -257,40 -311,190 -58,163 -69,241 -70,461z"/>
   <path class="fil36" d="M48420 14787c67,7 84,16 148,-14 17,-145 4,-17 55,-137 20,-48 173,-554 -95,-562 -127,-4 -180,121 -175,252 7,197 122,198 68,462z"/>
   <path class="fil36" d="M49837 15090c-57,-2 -86,-20 -137,24 -41,36 35,23 -163,193 -423,364 -113,417 48,378 91,-22 103,-60 148,-130 139,-219 45,-249 106,-465z"/>
   <path class="fil36" d="M48348 15019c-20,18 -78,93 -115,123 -38,30 -275,131 -243,291 50,248 500,85 506,-327 1,-67 22,-65 -34,-99 -5,-3 -13,-7 -18,-8 -6,-2 -15,-2 -21,-2 -78,-3 -29,-19 -74,23z"/>
   <path class="fil36" d="M54772 15382c175,-1 113,29 160,-145 97,-359 213,-575 -192,-535 -23,124 -25,203 -20,329 2,52 2,112 6,163l46 187z"/>
   <path class="fil36" d="M59813 19771l-7 -93c-81,22 -198,25 -305,49 -84,19 -202,66 -266,93l7 211c166,80 348,65 471,-85l63 -108c4,-7 8,-15 12,-22 4,-7 9,-17 12,-23 3,-6 9,-15 13,-23z"/>
   <path class="fil37" d="M52913 15072l139 3c4,-146 148,-265 100,-535 -15,-84 -22,-110 -119,-117 -310,-23 -121,487 -120,649z"/>
   <path class="fil36" d="M60880 21008l-60 -17c-95,57 148,-27 -298,166 -65,28 -114,38 -165,83 -34,30 -71,11 -55,138 16,129 28,38 47,79l71 21c32,5 102,4 134,-3 130,-25 209,-135 258,-248 37,-84 60,-115 68,-220z"/>
   <path class="fil36" d="M52476 15861c204,15 269,14 373,-118 92,-117 94,-244 89,-433 -100,39 -202,136 -289,202 -139,106 -185,107 -173,349z"/>
   <path class="fil36" d="M58911 18253c-20,-162 27,-63 -68,-119l-66 25c-326,132 -469,8 -483,275 5,4 122,183 376,65 17,-8 111,-85 135,-114 71,-84 19,-73 107,-132z"/>
   <path class="fil36" d="M47270 14615l-38 -100c-54,20 -552,309 -427,497 66,99 282,127 398,-206 24,-68 47,-123 67,-192z"/>
   <path class="fil37" d="M47306 14286l141 -315c43,-211 34,-339 -113,-349 -200,-14 -166,142 -155,325 7,125 40,255 127,339z"/>
   <path class="fil37" d="M51284 14965l106 2c5,-347 86,-770 -201,-656 -239,94 78,428 96,655z"/>
   <path class="fil37" d="M49885 14891c146,-232 216,-692 -23,-652 -185,31 -153,371 -85,514 52,110 53,112 108,138z"/>
   <path class="fil37" d="M57637 16971c-253,4 -191,62 -370,80 -87,9 -128,-12 -186,49 -187,194 261,389 466,53l79 -157c3,-7 8,-17 11,-25z"/>
   <path class="fil37" d="M51008 15756c281,7 229,-42 293,-156 74,-131 29,72 70,-132 1,-5 1,-106 0,-111 -26,-120 -11,-55 -47,-102l-202 168c-134,115 -118,130 -115,333z"/>
   <path class="fil37" d="M59945 19576l0 0z"/>
  </g>
 </g>
</svg>
