<?xml version="1.0" encoding="UTF-8"?>
<!DOCTYPE svg PUBLIC "-//W3C//DTD SVG 1.0//EN" "http://www.w3.org/TR/2001/REC-SVG-20010904/DTD/svg10.dtd">
<!-- Creator: CorelDRAW X6 -->
<svg xmlns="http://www.w3.org/2000/svg" xml:space="preserve" width="200px" height="65px" version="1.0" style="shape-rendering:geometricPrecision; text-rendering:geometricPrecision; image-rendering:optimizeQuality; fill-rule:evenodd; clip-rule:evenodd"
viewBox="0 0 1821 589"
 xmlns:xlink="http://www.w3.org/1999/xlink">
 <defs>
  <style type="text/css">
   <![CDATA[
    .fil0 {fill:black}
   ]]>
  </style>
 </defs>
 <g id="Camada_x0020_1">
  <metadata id="CorelCorpID_0Corel-Layer"/>
  <g id="_343867616">
   <path class="fil0" d="M419 12c-27,11 -48,-1 -48,41l2 351c0,17 -7,54 6,64 6,5 59,5 69,3 25,-4 18,-36 17,-55 -6,-98 7,-331 -2,-417l-43 12z"/>
   <path class="fil0" d="M1643 243c-4,-8 1,4 -2,-6l-46 -90 -89 0c0,19 -2,10 7,22 9,13 -3,2 9,19 7,10 2,11 8,20l27 57c4,11 5,9 10,18 4,8 4,9 9,16 4,6 4,11 9,19 5,7 4,10 10,18 6,8 4,11 11,18 11,12 4,8 8,19l19 37c4,11 -1,3 5,11 3,4 3,2 5,8 5,14 -1,4 9,16 3,9 -5,19 -5,19 -3,7 -1,7 -3,12 -3,8 -15,16 -22,37 -6,21 -34,20 -44,4 -10,-2 -21,-3 -32,-2l-19 10c-13,15 -13,26 -1,41 7,9 16,13 28,18 25,11 73,-4 96,-26 10,-10 18,-18 28,-28l16 -29c5,-15 16,-28 23,-45l8 -15c14,-25 -3,-38 -6,-44 -6,-10 2,-8 -8,-20 -8,-10 -4,-12 -10,-20l-47 -95c-3,-9 2,0 -5,-11 -2,-4 -3,-3 -5,-8z"/>
   <path class="fil0" d="M207 471c11,-13 2,-7 16,-11 0,0 1,2 8,-4 -20,-15 -42,-10 -69,-33 -10,-8 -30,-23 -35,-34 -3,-6 -2,-5 -6,-11 -7,-9 -2,-4 -6,-12 -3,-5 -3,-4 -6,-10 -1,-2 -1,-4 -2,-6l-2 -8c-2,-7 -9,-19 -10,-26 -2,-13 -1,-52 2,-65l9 -24c6,-15 18,-28 29,-39 17,-18 41,-24 45,-27l20 -15c-44,-2 -84,-2 -120,27l-8 4c-2,1 -11,9 -14,11 -4,4 -8,8 -11,12 0,1 -2,3 -2,3l-33 54c-1,6 -2,13 -4,19 -22,63 10,129 55,168 23,20 18,11 29,18 15,10 18,6 35,10 36,9 32,4 60,-1l23 -3z"/>
   <path class="fil0" d="M1202 151c-13,-7 -78,-8 -94,-3 -2,5 -2,2 1,10l34 73c4,9 2,11 8,22l20 41c9,14 3,12 8,23l50 102c1,4 1,7 3,12 4,12 2,-1 10,21 5,16 2,-3 10,20 1,4 2,5 4,9 13,0 39,6 45,-9 2,-6 0,-2 2,-8 4,-13 7,-5 10,-21 2,-8 -1,-10 11,-17 -2,-11 1,-13 -5,-23 -5,-8 -4,-11 -8,-18l-50 -110c-4,-14 -20,-38 -21,-42 -4,-14 -1,-6 -7,-16 -2,-3 -2,-4 -4,-9 -1,-2 -1,-5 -1,-6 -4,-12 -17,-31 -19,-35 -4,-8 0,-7 -6,-17z"/>
   <path class="fil0" d="M869 149c5,7 4,2 14,7 41,25 36,40 43,54 10,22 6,40 6,67 0,27 -4,181 2,193 8,4 79,4 89,0 4,-11 3,-216 2,-242 -2,-31 -21,-61 -49,-72 -8,-3 -17,-2 -26,-5 -8,-2 -15,-5 -24,-6 -9,-1 -52,-2 -57,2z"/>
   <path class="fil0" d="M534 149c16,16 31,8 32,55 2,79 0,184 0,265 12,7 84,9 90,0 4,-6 4,-228 1,-249l-19 -36c-7,-9 -17,-21 -29,-26l-20 -8c-10,-4 -43,-3 -54,0z"/>
   <path class="fil0" d="M899 455c-14,-5 -61,-6 -64,-60 -3,-50 3,-42 11,-57 12,-21 35,-34 38,-45l-34 2c-22,4 -9,2 -21,7 -11,4 -10,0 -22,8l-29 17c0,0 -1,1 -1,1 -5,4 -1,2 -7,8 -12,10 4,-5 -4,3 -15,14 -12,17 -16,24 -5,7 -3,0 -6,9 -3,8 -2,22 -2,31 0,15 7,32 18,45 17,20 18,16 42,22 29,8 51,10 80,-2 7,-3 -1,1 5,-3 2,-1 2,-1 4,-3 11,-7 4,1 9,-9z"/>
   <path class="fil0" d="M802 161c-51,21 -35,74 -11,87 24,13 54,3 65,-16 2,-4 3,-11 6,-17 5,-15 -5,-39 -20,-48 -15,-9 -25,-11 -39,-5z"/>
   <path class="fil0" d="M235 163c-20,5 -8,-4 -27,15 -5,4 -35,76 49,72l27 -16c15,-33 -1,-72 -38,-74 -11,0 -9,2 -11,3z"/>
   <path class="fil0" d="M1398 237c10,-14 18,-14 20,-23 3,-10 2,-34 -4,-42 -11,-15 -31,-24 -44,-22 -10,2 -23,7 -29,14 -5,6 -5,7 -8,15 -9,22 -3,19 3,36 12,34 41,23 63,22z"/>
   <path class="fil0" d="M1728 214l23 23 44 1c5,-6 10,-10 13,-13 5,-7 1,-10 13,-15 -2,-44 0,-14 -11,-37 -7,-16 -11,-14 -28,-19 -10,-3 -9,-3 -20,-1 -18,4 -17,4 -22,12 0,0 -1,1 -1,2 -13,19 -13,5 -12,47z"/>
  </g>
 </g>
</svg>
